<?xml version="1.0" encoding="UTF-8"?><svg id="uuid-cf49f723-75dd-4b43-96ce-b2489202e18e" xmlns="http://www.w3.org/2000/svg" viewBox="0 0 57.89 58.17"><defs><style>.uuid-19eee564-ac11-49eb-9489-402a4ab1ebfb{fill:#fff;stroke-width:.2px;}.uuid-19eee564-ac11-49eb-9489-402a4ab1ebfb,.uuid-8c128569-0dbb-4733-aba3-a6a8371e4c75,.uuid-a25cced7-193a-4e31-a48f-8608467d8a02,.uuid-9c9f0434-3978-40d5-834d-d163da875947,.uuid-bfa98eb8-f3bc-4049-b92e-0364e79c5dbd{stroke:#231f20;stroke-miterlimit:10;}.uuid-8c128569-0dbb-4733-aba3-a6a8371e4c75{fill:#00a79d;}.uuid-8c128569-0dbb-4733-aba3-a6a8371e4c75,.uuid-a25cced7-193a-4e31-a48f-8608467d8a02,.uuid-9c9f0434-3978-40d5-834d-d163da875947,.uuid-bfa98eb8-f3bc-4049-b92e-0364e79c5dbd{stroke-width:.3px;}.uuid-a25cced7-193a-4e31-a48f-8608467d8a02{fill:#2bb673;}.uuid-9c9f0434-3978-40d5-834d-d163da875947{fill:#27aae1;}.uuid-bfa98eb8-f3bc-4049-b92e-0364e79c5dbd{fill:#1c75bc;}</style></defs><path class="uuid-19eee564-ac11-49eb-9489-402a4ab1ebfb" d="m50.13,28.96c0,11.71-9.49,21.21-21.21,21.21S7.72,40.67,7.72,28.96,17.21,7.76,28.92,7.76s21.21,9.49,21.21,21.21ZM28.92,9.39c-10.81,0-19.57,8.76-19.57,19.57s8.76,19.57,19.57,19.57,19.57-8.76,19.57-19.57c0-10.81-8.76-19.57-19.57-19.57Z"/><g><path class="uuid-bfa98eb8-f3bc-4049-b92e-0364e79c5dbd" d="m36.36,58.02h-14.88c-2.18,0-3.95-1.77-3.95-3.95l3.77-14.31c0-8.29,1.88.19,4.23.19h6.59c2.73,0,4.43-8.47,4.43-.19l3.77,14.31c0,2.18-1.77,3.95-3.95,3.95Z"/><path class="uuid-9c9f0434-3978-40d5-834d-d163da875947" d="m21.49.15h14.88c2.18,0,3.95,1.77,3.95,3.95l-3.77,14.31c0,8.29-1.88-.19-4.23-.19h-6.59c-2.73,0-4.43,8.47-4.43.19l-3.77-14.31c0-2.18,1.77-3.95,3.95-3.95Z"/><path class="uuid-8c128569-0dbb-4733-aba3-a6a8371e4c75" d="m.15,36.4v-14.88c0-2.18,1.77-3.95,3.58-3.95l14.31,3.77c8.66,0,.19,1.88.19,4.23v6.59c0,2.73,8.47,4.43.19,4.43l-14.31,3.77c-2.18,0-3.95-1.77-3.95-3.95Z"/><path class="uuid-a25cced7-193a-4e31-a48f-8608467d8a02" d="m57.74,21.52v14.88c0,2.18-1.77,3.95-3.95,3.95l-14.31-3.77c-8.29,0,.19-1.88.19-4.23v-6.59c0-2.73-8.47-4.43-.19-4.43l14.31-3.77c2.18,0,3.95,1.77,3.95,3.95Z"/></g></svg>